HIERARCHY
ROOT Hips
{
	OFFSET 0.000000 0.000000 0.000000
	CHANNELS 6 Xposition Yposition Zposition Xrotation Yrotation Zrotation
	JOINT LeftUpLeg_virtual
	{
		OFFSET 0.000000 0.000000 0.000000
		CHANNELS 3 Xrotation Yrotation Zrotation
		JOINT LeftUpLeg
		{
			OFFSET 10.205400 -3.823500 0.155100
			CHANNELS 3 Xrotation Yrotation Zrotation
			JOINT LeftLeg
			{
				OFFSET 0.708757 -12.982077 0.567790
				CHANNELS 3 Xrotation Yrotation Zrotation
				JOINT LeftFoot
				{
					OFFSET -0.708756 -10.717838 -2.184338
					CHANNELS 3 Xrotation Yrotation Zrotation
					JOINT LeftToeBase
					{
						OFFSET 0.108149 -7.191104 7.560241
						CHANNELS 3 Xrotation Yrotation Zrotation
						JOINT LeftToe_End
						{
							OFFSET 0.070230 0.081724 4.490308
							CHANNELS 3 Xrotation Yrotation Zrotation
							End Site
							{
								OFFSET 0 0 0
							}
						}
					}
				}
			}
		}
	}
	JOINT RightUpLeg_virtual
	{
		OFFSET 0.000000 0.000000 0.000000
		CHANNELS 3 Xrotation Yrotation Zrotation
		JOINT RightUpLeg
		{
			OFFSET -10.205400 -3.823500 0.005500
			CHANNELS 3 Xrotation Yrotation Zrotation
			JOINT RightLeg
			{
				OFFSET -0.708756 -12.982134 0.610632
				CHANNELS 3 Xrotation Yrotation Zrotation
				JOINT RightFoot
				{
					OFFSET 0.708754 -10.717769 -1.945823
					CHANNELS 3 Xrotation Yrotation Zrotation
					JOINT RightToeBase
					{
						OFFSET -0.108140 -7.191069 7.372968
						CHANNELS 3 Xrotation Yrotation Zrotation
						JOINT RightToe_End
						{
							OFFSET -0.070227 0.081735 4.479403
							CHANNELS 3 Xrotation Yrotation Zrotation
							End Site
							{
								OFFSET 0 0 0
							}
						}
					}
				}
			}
		}
	}
	JOINT Spine_virtual
	{
		OFFSET 0.000000 0.000000 0.000000
		CHANNELS 3 Xrotation Yrotation Zrotation
		JOINT Spine
		{
			OFFSET 0.000000 6.876099 0.125700
			CHANNELS 3 Xrotation Yrotation Zrotation
			JOINT Spine1
			{
				OFFSET 0.000000 5.730043 0.104720
				CHANNELS 3 Xrotation Yrotation Zrotation
				JOINT Spine1_split
				{
					OFFSET 0.000000 5.730043 0.104720
					CHANNELS 3 Xrotation Yrotation Zrotation
					JOINT Spine2
					{
						OFFSET 0.000000 5.730043 0.104720
						CHANNELS 3 Xrotation Yrotation Zrotation
						JOINT Neck_virtual
						{
							OFFSET 0.000000 0.000000 0.000000
							CHANNELS 3 Xrotation Yrotation Zrotation
							JOINT Neck
							{
								OFFSET 0.000000 10.314075 0.188496
								CHANNELS 3 Xrotation Yrotation Zrotation
								JOINT Head
								{
									OFFSET 0.000000 7.643700 -2.377400
									CHANNELS 3 Xrotation Yrotation Zrotation
									JOINT HeadTop_End
									{
										OFFSET 0.000000 43.788605 -13.619600
										CHANNELS 3 Xrotation Yrotation Zrotation
										End Site
										{
											OFFSET 0 0 0
										}
									}
								}
							}
						}
						JOINT LeftShoulder_virtual
						{
							OFFSET 0.000000 0.000000 0.000000
							CHANNELS 3 Xrotation Yrotation Zrotation
							JOINT LeftShoulder
							{
								OFFSET 2.196100 4.412489 0.087492
								CHANNELS 3 Xrotation Yrotation Zrotation
								JOINT LeftShoulder_split
								{
									OFFSET 2.196100 4.412489 0.087492
									CHANNELS 3 Xrotation Yrotation Zrotation
									JOINT LeftArm
									{
										OFFSET 8.771219 -2.981674 -0.026999
										CHANNELS 3 Xrotation Yrotation Zrotation
										JOINT LeftForeArm
										{
											OFFSET 8.512804 0.000000 -0.000000
											CHANNELS 3 Xrotation Yrotation Zrotation
											JOINT LeftHand
											{
												OFFSET 18.484802 0.000000 -0.000000
												CHANNELS 3 Xrotation Yrotation Zrotation
												End Site
												{
													OFFSET 0 0 0
												}
											}
										}
									}
								}
							}
						}
						JOINT RightShoulder_virtual
						{
							OFFSET 0.000000 0.000000 0.000000
							CHANNELS 3 Xrotation Yrotation Zrotation
							JOINT RightShoulder
							{
								OFFSET -2.196100 4.412496 0.070690
								CHANNELS 3 Xrotation Yrotation Zrotation
								JOINT RightShoulder_split
								{
									OFFSET -2.196100 4.412496 0.070690
									CHANNELS 3 Xrotation Yrotation Zrotation
									JOINT RightArm
									{
										OFFSET -8.771282 -2.981682 -0.094208
										CHANNELS 3 Xrotation Yrotation Zrotation
										JOINT RightForeArm
										{
											OFFSET -8.494598 0.000000 0.000000
											CHANNELS 3 Xrotation Yrotation Zrotation
											JOINT RightHand
											{
												OFFSET -18.483803 0.000000 0.000001
												CHANNELS 3 Xrotation Yrotation Zrotation
												End Site
												{
													OFFSET 0 0 0
												}
											}
										}
									}
								}
							}
						}
					}
				}
			}
		}
	}
}
MOTION
Frames: 5
Frame Time: 0.03333333
2.181516 27.421476 -1.227884 0.000000 0.000000 0.000000 2.521600 -53.744334 4.083208 -45.911316 -0.108933 25.242028 48.142360 -4.371901 1.620079 -5.666116 -7.875539 -23.208652 0.018612 0.449006 0.715122 0.000000 0.000000 0.000000 1.159205 -54.181551 3.772411 -29.072635 -25.104437 -40.425728 45.617269 13.345874 -3.630525 -23.437589 -8.317246 20.360000 2.263040 0.001737 -0.464439 0.000000 0.000000 0.000000 4.237234 -51.073204 4.753180 9.058747 10.578953 -1.824095 3.566259 4.722410 -1.428391 0.350124 0.023722 -0.094461 0.000000 0.000000 0.000000 3.894233 4.883285 -1.158327 -2.703724 2.987333 3.131660 -5.376036 40.249123 -6.534942 0.000000 0.000000 0.000000 4.360965 4.761631 -1.909767 0.365291 -8.751283 -15.867643 -6.131642 2.047299 1.303194 -11.600761 -39.357708 -19.580511 -6.304054 -66.398974 -3.168006 0.000000 0.000000 0.000000 5.616601 5.252120 -1.487502 -4.919474 20.616233 -19.468075 1.903367 -5.247560 -4.279216 -32.064907 28.027849 30.132312 -128.505105 88.139015 127.695222 0.000000 0.000000 0.000000 
2.352288 27.623617 -1.259930 0.000000 0.000000 0.000000 2.290504 -55.005317 4.082217 -45.538309 1.025229 25.516354 47.246205 -4.791347 1.600370 -5.111022 -7.254260 -23.366835 -0.066121 0.479889 0.436372 0.000000 0.000000 0.000000 1.126866 -55.208583 3.706595 -29.796010 -24.468989 -39.832055 44.834274 12.984780 -3.488942 -21.644475 -7.597969 19.766079 2.664670 0.097972 -0.585513 0.000000 0.000000 0.000000 3.667656 -51.987722 4.331591 10.603379 10.696637 -2.290727 3.644583 4.478739 -1.572622 0.259798 0.179297 -0.189857 0.000000 0.000000 0.000000 3.678670 4.695974 -1.178587 -2.596978 2.802341 3.536164 -8.316511 39.702981 -5.942923 0.000000 0.000000 0.000000 4.823412 4.325128 -1.880405 0.726407 -8.942937 -15.876896 -7.381254 2.306873 0.970951 -20.802130 -38.404890 -25.500341 -4.814392 -67.381148 -1.923303 0.000000 0.000000 0.000000 5.790537 5.063053 -1.267190 -1.742776 20.728712 -14.243018 1.795604 -4.648375 -3.964226 -22.505719 32.393828 25.272209 -170.214980 84.242378 169.480421 0.000000 0.000000 0.000000 
2.500859 27.893589 -1.253725 0.000000 0.000000 0.000000 2.181625 -57.047092 3.936232 -44.544124 2.748245 26.172146 45.915858 -5.440504 1.650546 -5.387263 -6.233136 -23.527230 -0.295621 0.469522 0.227961 0.000000 0.000000 0.000000 1.070554 -57.132859 3.414753 -30.322516 -23.771879 -38.728641 43.145438 12.627005 -3.335959 -19.503974 -6.748723 19.331595 2.868228 0.116725 -0.707778 0.000000 0.000000 0.000000 3.001842 -53.823902 3.647052 12.151870 10.380718 -2.960291 3.675675 4.071826 -1.792325 0.427038 0.161255 -0.125010 0.000000 0.000000 0.000000 3.515297 4.259550 -1.357137 -2.788270 2.556219 3.892303 -10.529357 40.051997 -5.319882 0.000000 0.000000 0.000000 5.148354 3.745339 -1.918930 1.123396 -8.699982 -14.963573 -8.383887 2.465449 0.668912 -29.739955 -36.478746 -29.931863 -2.531137 -68.240939 -0.001342 0.000000 0.000000 0.000000 5.774557 4.639326 -1.320136 0.670503 20.216749 -10.335418 1.950577 -3.100223 -3.120606 -14.411120 34.538190 18.622485 -174.655245 81.376090 173.771583 0.000000 0.000000 0.000000 
2.632065 28.215885 -1.222887 0.000000 0.000000 0.000000 1.999346 -59.911694 3.499662 -42.909577 4.882371 27.217532 44.501660 -6.249994 1.734347 -6.231884 -4.851047 -23.645003 -0.708901 0.417434 0.088078 0.000000 0.000000 0.000000 0.976741 -59.860693 2.881450 -30.647322 -23.051018 -37.114626 40.588980 12.323234 -3.168681 -17.343247 -5.738363 18.966037 3.058481 0.045570 -0.767847 0.000000 0.000000 0.000000 2.170241 -56.396349 2.645716 13.453128 9.771191 -3.815007 3.699113 3.643497 -2.043486 0.546085 0.283014 -0.021392 0.000000 0.000000 0.000000 3.431127 3.716696 -1.606880 -3.288291 2.224711 4.259727 -11.730675 41.187673 -4.626920 0.000000 0.000000 0.000000 5.307847 3.179585 -1.992563 1.456679 -8.303090 -13.218833 -9.181098 2.404773 0.480475 -36.962901 -33.815884 -31.261957 0.048414 -69.817688 2.163591 0.000000 0.000000 0.000000 5.645860 4.125052 -1.579962 2.404527 19.473884 -8.006164 1.931330 -1.327310 -1.758325 -9.798910 37.481305 12.098195 -173.537089 82.025504 172.267616 0.000000 0.000000 0.000000 
2.761539 28.567221 -1.173971 0.000000 0.000000 0.000000 1.875955 -63.629564 2.898366 -40.795217 7.239997 28.555332 43.315000 -7.075406 1.827755 -7.413810 -3.035719 -23.489186 -1.004418 0.328632 -0.083886 0.000000 0.000000 0.000000 0.789479 -63.339199 2.103648 -30.772219 -22.312189 -35.059692 37.345487 12.051995 -2.958673 -15.401491 -4.518537 18.492464 3.340050 -0.089769 -0.736294 0.000000 0.000000 0.000000 1.199851 -59.698558 1.368749 14.302285 8.966333 -4.796686 3.758999 3.287130 -2.243444 0.922441 0.337002 0.038506 0.000000 0.000000 0.000000 3.464625 3.195062 -1.828150 -4.087148 2.023167 4.561462 -11.943466 43.141182 -3.851823 0.000000 0.000000 0.000000 5.331702 2.743601 -2.063853 1.683234 -7.904479 -10.903533 -9.557233 2.251580 0.730782 -41.297926 -30.746547 -28.992589 2.115031 -72.454367 3.912463 0.000000 0.000000 0.000000 5.476816 3.628229 -1.898132 3.443313 18.485963 -7.240018 1.243225 -0.300824 0.130901 -9.246040 43.314696 6.915291 -166.014045 84.994649 164.204113 0.000000 0.000000 0.000000 
